<svg width="56" height="61" viewBox="0 0 56 61" fill="none" xmlns="http://www.w3.org/2000/svg">
<g clip-path="url(#clip0_325_15776)">
<path d="M1.8457 8.82501V30.6213C1.8457 41.1948 19.5172 61.1305 28 61.1352C36.4829 61.1399 54.1543 41.1948 54.1543 30.6213V8.82501C54.1543 0.426644 37.0478 0.107422 28 0.107422C18.9523 0.107422 1.8457 0.426644 1.8457 8.82501Z" stroke="black" stroke-width="0.5" stroke-linecap="round" stroke-linejoin="round"/>
<path d="M20.7349 21.1772C18.9488 20.0981 16.9784 19.359 14.9231 18.9974C12.8679 19.359 10.8975 20.0981 9.11143 21.1772C10.8975 22.2564 12.8679 22.9955 14.9231 23.357C16.9784 22.9955 18.9488 22.2564 20.7349 21.1772ZM35.2657 21.1772C37.0518 20.0981 39.0223 19.359 41.0775 18.9974C43.1327 19.359 45.1031 20.0981 46.8892 21.1772C45.1031 22.2564 43.1327 22.9955 41.0775 23.357C39.0223 22.9955 37.0518 22.2564 35.2657 21.1772ZM25.0944 48.0592V54.597L28.0003 57.506L30.9062 54.5985V48.0607L25.0944 48.0592ZM9.11143 32.0762L14.9231 42.9735H25.0944L28.0003 40.0677L30.9062 42.9735H41.0775L46.8892 32.0762L39.6253 38.614H33.812L29.454 34.2544H26.545L22.187 38.614H16.3737L9.11143 32.0762ZM8.38379 16.0916C12.9405 13.7804 16.5349 12.9307 21.4609 18.708C21.8662 19.0542 22.3817 19.2445 22.9147 19.2445C23.4477 19.2445 23.9632 19.0542 24.3684 18.708C24.7172 18.3043 24.9092 17.7886 24.9092 17.255C24.9092 16.7215 24.7172 16.2058 24.3684 15.8021C18.4534 9.77756 11.4352 10.3518 8.38379 16.0916ZM47.6168 16.0916C43.0601 13.7804 39.4657 12.9307 34.5397 18.708C34.1345 19.0542 33.619 19.2445 33.086 19.2445C32.5529 19.2445 32.0374 19.0542 31.6322 18.708C31.2834 18.3043 31.0914 17.7886 31.0914 17.255C31.0914 16.7215 31.2834 16.2058 31.6322 15.8021C37.5472 9.77756 44.567 10.3518 47.6168 16.0916Z" stroke="black" stroke-width="0.5" stroke-linecap="round" stroke-linejoin="round"/>
</g>
<defs>
<clipPath id="clip0_325_15776">
<rect width="56" height="61" fill="white"/>
</clipPath>
</defs>
</svg>
