<svg width="52" height="52" viewBox="0 0 52 52" fill="none" xmlns="http://www.w3.org/2000/svg">
<path d="M33.3536 35.6529L45.9766 48.2743C46.283 48.5703 46.6935 48.7341 47.1196 48.7304C47.5457 48.7267 47.9532 48.5558 48.2545 48.2545C48.5558 47.9532 48.7267 47.5457 48.7304 47.1196C48.7341 46.6935 48.5703 46.283 48.2743 45.9766L6.02431 3.72656C5.87441 3.57136 5.6951 3.44756 5.49684 3.3624C5.29859 3.27723 5.08536 3.23241 4.86959 3.23053C4.65382 3.22866 4.43984 3.26977 4.24014 3.35148C4.04043 3.43318 3.859 3.55384 3.70642 3.70642C3.55384 3.859 3.43318 4.04043 3.35148 4.24014C3.26977 4.43984 3.22866 4.65382 3.23053 4.86959C3.23241 5.08536 3.27723 5.29859 3.3624 5.49684C3.44756 5.6951 3.57136 5.87441 3.72656 6.02431L12.1603 14.4581C5.67656 19.5768 3.34631 27.0518 3.31381 27.1704C3.05381 28.0317 3.54131 28.9254 4.40256 29.1854C5.26381 29.4454 6.17381 28.9579 6.43381 28.0967C6.55244 27.6839 8.64056 21.0718 14.4386 16.7379L19.5979 21.8973C18.5894 22.7752 17.7721 23.8512 17.1971 25.0584C16.622 26.2656 16.3014 27.5781 16.2552 28.9145C16.209 30.2508 16.4381 31.5824 16.9284 32.8264C17.4186 34.0704 18.1596 35.2003 19.1051 36.1458C20.0506 37.0913 21.1805 37.8322 22.4245 38.3225C23.6685 38.8128 25.0001 39.0419 26.3364 38.9957C27.6728 38.9495 28.9853 38.6289 30.1925 38.0538C31.3997 37.4787 32.4757 36.6615 33.3536 35.6529ZM31.0477 33.3454C30.4737 34.0514 29.758 34.629 28.9467 35.0409C28.1354 35.4528 27.2467 35.6898 26.3381 35.7365C25.4294 35.7832 24.5211 35.6387 23.6718 35.3122C22.8226 34.9858 22.0513 34.4846 21.408 33.8413C20.7646 33.1979 20.2635 32.4267 19.937 31.5774C19.6106 30.7282 19.466 29.8198 19.5128 28.9112C19.5595 28.0025 19.7965 27.1138 20.2083 26.3026C20.6202 25.4913 21.1978 24.7755 21.9038 24.2016L31.0477 33.3454ZM25.2741 19.5264L29.5527 23.8067C30.3067 24.2991 30.9502 24.9442 31.4442 25.6966L35.7244 29.9768C35.7407 29.7363 35.7494 29.4942 35.7504 29.2504C35.7506 27.9088 35.4738 26.5815 34.9375 25.3517C34.4011 24.1219 33.6167 23.016 32.6333 22.1032C31.65 21.1905 30.4888 20.4905 29.2225 20.0471C27.9562 19.6037 26.612 19.4265 25.2741 19.5264ZM17.2092 11.4616L19.7198 13.9754C21.7452 13.3155 23.8638 12.9862 25.9939 13.0004C40.7896 13.0004 45.3558 27.4678 45.5557 28.0967C45.7669 28.7954 46.4169 29.2504 47.1157 29.2504V29.2342C47.3688 29.2366 47.6189 29.1794 47.8458 29.0673C48.0727 28.9552 48.27 28.7913 48.4219 28.5888C48.5737 28.3863 48.6758 28.151 48.7199 27.9018C48.764 27.6526 48.7488 27.3965 48.6757 27.1542C48.6253 26.9917 43.2466 9.75044 25.9923 9.75044C22.6286 9.75044 19.7166 10.4053 17.2076 11.4616" fill="#FFEAE5"/>
</svg>
