<svg width="52" height="55" viewBox="0 0 52 55" fill="none" xmlns="http://www.w3.org/2000/svg">
<path d="M49.1111 8.68421C49.1111 10.9874 48.198 13.1963 46.5727 14.8249C44.9474 16.4535 42.743 17.3684 40.4444 17.3684C38.1459 17.3684 35.9415 16.4535 34.3162 14.8249C32.6909 13.1963 31.7778 10.9874 31.7778 8.68421C31.7778 6.38101 32.6909 4.17215 34.3162 2.54355C35.9415 0.914941 38.1459 0 40.4444 0C42.743 0 44.9474 0.914941 46.5727 2.54355C48.198 4.17215 49.1111 6.38101 49.1111 8.68421ZM11.5556 2.89474C8.49083 2.89474 5.55163 4.11466 3.38454 6.28613C1.21746 8.45761 0 11.4028 0 14.4737V20.2632H5.77778V14.4737C5.77778 12.9382 6.38651 11.4656 7.47005 10.3799C8.55359 9.29417 10.0232 8.68421 11.5556 8.68421H20.2222V2.89474H11.5556ZM40.4444 55C43.5092 55 46.4484 53.7801 48.6155 51.6086C50.7825 49.4371 52 46.492 52 43.4211V37.6316H46.2222V43.4211C46.2222 44.9565 45.6135 46.4291 44.5299 47.5148C43.4464 48.6006 41.9768 49.2105 40.4444 49.2105H31.7778V55H40.4444ZM11.5556 40.5263C13.8541 40.5263 16.0585 39.6114 17.6838 37.9828C19.3091 36.3542 20.2222 34.1453 20.2222 31.8421C20.2222 29.5389 19.3091 27.33 17.6838 25.7014C16.0585 24.0728 13.8541 23.1579 11.5556 23.1579C9.25701 23.1579 7.05261 24.0728 5.4273 25.7014C3.80198 27.33 2.88889 29.5389 2.88889 31.8421C2.88889 34.1453 3.80198 36.3542 5.4273 37.9828C7.05261 39.6114 9.25701 40.5263 11.5556 40.5263ZM40.4444 20.2632C37.3797 20.2632 34.4405 21.4831 32.2734 23.6546C30.1063 25.826 28.8889 28.7712 28.8889 31.8421H52C52 28.7712 50.7825 25.826 48.6155 23.6546C46.4484 21.4831 43.5092 20.2632 40.4444 20.2632ZM0 55C0 51.9291 1.21746 48.9839 3.38454 46.8124C5.55163 44.641 8.49083 43.4211 11.5556 43.4211C14.6203 43.4211 17.5595 44.641 19.7266 46.8124C21.8937 48.9839 23.1111 51.9291 23.1111 55H0Z" fill="#E5FFFA"/>
</svg>
