<svg width="52" height="65" viewBox="0 0 52 65" fill="none" xmlns="http://www.w3.org/2000/svg">
<path d="M26 65C18.4708 63.1042 12.2547 58.7838 7.3515 52.039C2.44834 45.2942 -0.00216523 37.8062 1.43551e-06 29.575V9.75L26 0L52 9.75V29.575C52 37.8083 49.5495 45.2974 44.6485 52.0423C39.7475 58.7871 33.5313 63.1063 26 65ZM19.5 45.5H32.5C33.4208 45.5 34.1933 45.188 34.8173 44.564C35.4413 43.94 35.7522 43.1687 35.75 42.25V32.5C35.75 31.5792 35.438 30.8078 34.814 30.186C34.19 29.5642 33.4187 29.2522 32.5 29.25V26C32.5 24.2125 31.8641 22.6828 30.5923 21.411C29.3204 20.1392 27.7897 19.5022 26 19.5C24.2103 19.4978 22.6807 20.1348 21.411 21.411C20.1413 22.6872 19.5043 24.2168 19.5 26V29.25C18.5792 29.25 17.8078 29.562 17.186 30.186C16.5642 30.81 16.2522 31.5813 16.25 32.5V42.25C16.25 43.1708 16.562 43.9433 17.186 44.5673C17.81 45.1913 18.5813 45.5022 19.5 45.5ZM22.75 29.25V26C22.75 25.0792 23.062 24.3078 23.686 23.686C24.31 23.0642 25.0813 22.7522 26 22.75C26.9187 22.7478 27.6911 23.0598 28.3173 23.686C28.9434 24.3122 29.2543 25.0835 29.25 26V29.25H22.75Z" fill="#37A432"/>
</svg>
