<svg width="52" height="52" viewBox="0 0 52 52" fill="none" xmlns="http://www.w3.org/2000/svg">
<g clip-path="url(#clip0_325_15779)">
<path d="M37.7 26C37.7 24.232 37.544 22.516 37.336 20.8H46.124C46.54 22.464 46.8 24.206 46.8 26C46.8 26.962 46.722 27.898 46.592 28.808C48.386 29.068 50.05 29.64 51.584 30.472C51.844 29.016 52 27.534 52 26C52 11.7 40.3 0 26 0C11.622 0 0 11.7 0 26C0 40.3 11.7 52 26 52C27.534 52 29.016 51.844 30.472 51.584C29.2371 49.3192 28.5932 46.7796 28.6 44.2C28.6 43.446 28.678 42.718 28.782 41.99C27.95 43.628 27.04 45.214 26 46.696C23.842 43.576 22.1 40.118 21.034 36.4H30.706C32.2676 33.6865 34.6156 31.5107 37.44 30.16C37.596 28.782 37.7 27.404 37.7 26ZM26 5.278C28.158 8.398 29.9 11.882 30.966 15.6H21.034C22.1 11.882 23.842 8.398 26 5.278ZM5.876 31.2C5.46 29.536 5.2 27.794 5.2 26C5.2 24.206 5.46 22.464 5.876 20.8H14.664C14.456 22.516 14.3 24.232 14.3 26C14.3 27.768 14.456 29.484 14.664 31.2H5.876ZM8.008 36.4H15.6C16.51 39.65 17.68 42.77 19.24 45.656C14.5035 44.024 10.5152 40.7373 8.008 36.4ZM15.6 15.6H8.008C10.5005 11.2503 14.4941 7.95923 19.24 6.344C17.68 9.23 16.51 12.35 15.6 15.6ZM32.084 31.2H19.916C19.656 29.484 19.5 27.768 19.5 26C19.5 24.232 19.656 22.49 19.916 20.8H32.084C32.318 22.49 32.5 24.232 32.5 26C32.5 27.768 32.318 29.484 32.084 31.2ZM32.734 6.344C37.518 7.982 41.496 11.284 43.992 15.6H36.322C35.507 12.3802 34.3021 9.27187 32.734 6.344ZM53.3 39.65L40.95 52L33.8 44.2L36.816 41.184L40.95 45.318L50.284 35.984L53.3 39.65Z" fill="#FFE5F5"/>
</g>
<defs>
<clipPath id="clip0_325_15779">
<rect width="52" height="52" fill="white"/>
</clipPath>
</defs>
</svg>
