<svg width="52" height="72" viewBox="0 0 52 72" fill="none" xmlns="http://www.w3.org/2000/svg">
<g clip-path="url(#clip0_324_15764)">
<path d="M36.5626 44.6896V36.7677C36.5626 33.9663 35.4497 31.2797 33.4689 29.2989C31.488 27.318 28.8014 26.2052 26.0001 26.2052C23.1987 26.2052 20.5121 27.318 18.5313 29.2989C16.5504 31.2797 15.4376 33.9663 15.4376 36.7677V44.6896C14.0375 44.6917 12.6955 45.2488 11.7055 46.2387C10.7155 47.2287 10.1584 48.5708 10.1563 49.9708V65.8146C10.1584 67.2146 10.7155 68.5567 11.7055 69.5467C12.6955 70.5366 14.0375 71.0937 15.4376 71.0958H36.5626C37.9626 71.0937 39.3047 70.5366 40.2947 69.5467C41.2846 68.5567 41.8417 67.2146 41.8438 65.8146V49.9708C41.8417 48.5708 41.2846 47.2287 40.2947 46.2387C39.3047 45.2488 37.9626 44.6917 36.5626 44.6896ZM20.7188 36.7677C20.7188 35.367 21.2752 34.0237 22.2657 33.0333C23.2561 32.0429 24.5994 31.4864 26.0001 31.4864C27.4008 31.4864 28.7441 32.0429 29.7345 33.0333C30.7249 34.0237 31.2813 35.367 31.2813 36.7677V44.6896H20.7188V36.7677ZM15.4376 65.8146V49.9708H36.5626V65.8146H15.4376ZM-0.128906 10.6387L3.60494 14.3726C6.54345 11.4272 10.0341 9.0904 13.877 7.496C17.7199 5.9016 21.8396 5.0809 26.0001 5.0809C30.1606 5.0809 34.2803 5.9016 38.1232 7.496C41.9661 9.0904 45.4567 11.4272 48.3952 14.3726L52.1291 10.6387C48.7002 7.20311 44.6274 4.47745 40.1438 2.61774C35.6603 0.75803 30.854 -0.199219 26.0001 -0.199219C21.1461 -0.199219 16.3399 0.75803 11.8563 2.61774C7.37277 4.47745 3.29999 7.20311 -0.128906 10.6387Z" fill="black"/>
<path d="M26.0004 13C22.8799 12.9984 19.7898 13.6135 16.9076 14.8098C14.0255 16.0062 11.4082 17.7603 9.20605 19.9713L12.9346 23.7025C14.6491 21.9847 16.6855 20.6218 18.9272 19.692C21.169 18.7621 23.5721 18.2835 25.9991 18.2835C28.4261 18.2835 30.8292 18.7621 33.071 19.692C35.3128 20.6218 37.3492 21.9847 39.0636 23.7025L42.7974 19.9686C40.5948 17.7578 37.9769 16.004 35.0943 14.8081C32.2118 13.6122 29.1212 12.9977 26.0004 13Z" fill="black"/>
</g>
<defs>
<clipPath id="clip0_324_15764">
<rect width="52" height="71.5" fill="white"/>
</clipPath>
</defs>
</svg>
